<svg width="124" height="168" viewBox="0 0 124 168" fill="none" xmlns="http://www.w3.org/2000/svg">
<path d="M21.79 122.822C21.7913 135.142 31.6623 145.129 43.8389 145.129C43.9251 145.129 44.0117 145.126 44.0977 145.125C44.0977 145.126 44.0986 145.128 44.0986 145.129L44.0977 145.132C44.0117 145.131 43.9251 145.129 43.8389 145.129C31.6629 145.129 21.7922 155.115 21.79 167.434H21.7891C21.7869 155.202 12.0567 145.272 0 145.132V145.125C12.0573 144.984 21.7878 135.054 21.7891 122.822H21.79Z" fill="#A9203E"/>
<path d="M2.30484 74.4346V0.420898C2.30484 0.420898 21.8125 17.4421 32.5223 29.1084C37.8313 34.8914 39.7898 40.0005 39.7898 47.8509V114.023L60.0623 91.6471C60.0623 91.6471 65.0918 86.9037 69.0512 85.1446C72.6937 83.5263 78.996 82.8496 78.996 82.8496H116.481C116.481 82.8496 121.836 85.3357 117.629 89.5433C115.525 91.6471 101.597 106.622 91.236 114.023C85.8812 117.848 82.7093 119.952 76.5098 119.952H39.7898C39.7898 119.952 34.6116 119.938 32.5223 117.848L6.32108 91.6471C2.96451 85.239 2.19496 81.4484 2.30484 74.4346Z" fill="#A9203E" stroke="#A9203E" stroke-width="0.3825"/>
<path d="M75.6678 127.411H42.4046C40.3072 127.411 39.3565 131.743 40.8899 133.34C48.449 141.211 60.0248 153.804 70.0344 161.071C73.0083 163.23 79.0235 164.514 79.0235 164.514H120.333C120.333 164.514 118.407 162.41 114.596 158.202C112.69 156.099 98.9278 140.741 89.5419 133.34C84.6912 129.515 81.2837 127.411 75.6678 127.411Z" fill="#A9203E"/>
</svg>
